<svg width="960" height="540" version="1.1" xmlns="http://www.w3.org/2000/svg" desc="Created with ImageTracerAndroid.java version 1.1.2" ><path desc="l 0 p 0" fill="rgb(1,0,0)" stroke="rgb(1,0,0)" stroke-width="1" opacity="1.0" d="M 0.5 0.0 L 960.0 0.5 L 959.5 540.0 L 0.0 539.5 L 0.5 0.0 Z" /><path desc="l 5 p 0" fill="rgb(205,0,0)" stroke="rgb(205,0,0)" stroke-width="1" opacity="1.0" d="M 55.5 184.0 L 57.0 184.5 Q 64.5999984741211 202.89999389648438 75.5 218.0 L 81.0 205.5 L 88.5 194.0 L 92.0 191.5 L 93.5 188.0 L 94.0 190.5 L 88.0 204.5 L 92.0 201.5 L 94.5 198.0 L 96.0 198.5 L 88.0 213.5 L 85.0 218.5 L 84.0 224.5 L 90.5 239.0 L 95.0 238.5 L 102.0 236.5 Q 104.80000305175781 234.3000030517578 110.5 235.0 L 111.0 236.5 L 96.0 242.5 Q 95.30000305175781 246.3000030517578 97.5 247.0 Q 102.30000305175781 245.8000030517578 103.5 248.0 L 107.0 249.5 L 105.0 253.5 L 108.5 254.0 Q 113.5999984741211 250.60000610351562 123.5 252.0 L 123.5 253.0 Q 113.30000305175781 254.8000030517578 106.0 259.5 L 139.0 316.5 L 137.0 317.5 Q 138.60000610351562 324.5 143.5 328.0 L 148.0 325.5 L 147.0 293.5 L 148.0 290.5 L 148.0 284.5 L 145.5 284.0 L 144.0 284.5 L 146.0 281.5 L 142.5 281.0 L 139.5 282.0 L 139.0 280.5 L 148.0 275.5 L 147.5 265.0 L 146.0 254.5 L 145.0 248.5 L 143.5 243.0 L 140.5 235.0 L 127.5 238.0 L 127.5 237.0 L 131.5 236.0 L 140.0 232.5 L 139.5 230.0 L 135.5 231.0 L 134.5 229.0 L 139.0 226.5 L 135.5 226.0 Q 129.0 229.0 119.5 229.0 L 120.5 227.0 L 138.0 221.5 L 136.0 208.5 L 139.0 210.5 Q 138.3000030517578 214.3000030517578 140.5 215.0 L 141.5 213.0 L 144.0 214.5 L 145.5 219.0 L 148.5 214.0 L 152.0 216.5 L 151.0 204.5 L 153.0 205.5 L 154.5 216.0 Q 165.0 215.5 171.5 211.0 L 186.0 205.5 L 196.5 203.0 L 197.0 204.5 L 193.0 207.5 L 194.5 210.0 L 202.5 209.0 L 213.5 207.0 L 214.0 208.5 L 156.0 230.5 L 156.5 238.0 L 158.0 244.5 L 161.5 265.0 L 166.5 264.0 L 177.5 260.0 L 199.5 252.0 L 200.0 253.5 L 195.0 256.5 L 196.0 258.5 L 192.0 261.5 L 197.5 262.0 Q 200.8000030517578 258.79998779296875 208.5 260.0 L 207.5 262.0 L 206.0 262.5 L 210.5 263.0 L 214.5 262.0 L 215.0 263.5 L 177.0 276.5 L 164.0 281.5 L 167.5 303.0 L 169.0 309.5 L 170.5 313.0 L 199.5 304.0 Q 201.8000030517578 307.79998779296875 208.5 307.0 L 211.5 306.0 L 212.0 307.5 L 210.0 308.5 L 213.0 309.5 Q 206.6999969482422 315.70001220703125 195.5 317.0 L 188.0 319.5 Q 178.39999389648438 321.3999938964844 172.0 326.5 L 171.5 334.0 L 168.5 325.0 L 168.0 333.5 L 168.0 335.5 L 167.0 343.5 L 166.5 355.0 Q 163.1999969482422 353.29998779296875 164.0 347.5 L 160.5 334.0 L 158.5 338.0 L 157.0 337.5 L 155.5 332.0 L 153.5 335.0 L 152.0 334.5 L 150.5 337.0 L 149.0 336.5 Q 149.8000030517578 332.79998779296875 147.5 332.0 L 145.0 332.5 L 146.0 335.5 L 142.5 333.0 L 138.0 334.5 L 141.0 345.5 L 139.5 346.0 Q 134.5 343.0 134.0 335.5 L 131.0 328.5 L 131.0 326.5 L 124.5 315.0 L 123.5 318.0 L 119.5 313.0 L 118.0 312.5 L 100.0 280.5 L 91.5 264.0 L 82.0 266.5 L 62.0 273.5 L 54.5 291.0 L 49.5 306.0 L 48.0 305.5 Q 51.0 302.5 50.0 295.5 L 49.0 295.5 L 34.5 325.0 L 33.0 324.5 L 38.0 311.5 L 36.0 312.5 L 34.5 316.0 L 33.0 315.5 L 39.0 297.5 L 37.0 298.5 L 33.5 305.0 L 32.0 304.5 L 43.0 282.5 Q 41.79999923706055 279.79998779296875 40.5 282.0 L 35.5 283.0 L 37.5 280.0 L 41.0 278.5 L 40.0 276.5 L 42.5 273.0 L 36.0 274.5 L 30.5 275.0 L 30.0 273.5 L 38.0 270.5 Q 34.0 268.5 38.0 266.5 L 39.5 263.0 L 48.0 260.5 Q 52.70000076293945 260.70001220703125 54.0 257.5 L 50.5 257.0 L 46.5 258.0 L 45.5 256.0 L 52.5 253.0 L 55.5 252.0 L 59.0 248.5 L 66.5 232.0 L 68.0 228.5 L 69.0 221.5 L 64.0 214.5 Q 60.29999923706055 212.3000030517578 61.0 205.5 L 61.0 203.5 L 57.0 192.5 Q 54.0 189.10000610351562 55.5 184.0 Z" /><path desc="l 5 p 1" fill="rgb(205,0,0)" stroke="rgb(205,0,0)" stroke-width="1" opacity="1.0" d="M 313.5 184.0 L 315.0 184.5 L 325.0 203.5 L 333.5 218.0 L 339.0 206.5 L 346.5 194.0 L 350.0 191.5 L 351.5 188.0 L 352.0 190.5 L 346.0 204.5 L 349.0 202.5 L 352.5 198.0 L 354.0 198.5 L 346.0 213.5 L 343.0 218.5 L 342.0 224.5 L 348.5 239.0 L 353.0 238.5 L 360.0 236.5 Q 362.79998779296875 234.3000030517578 368.5 235.0 L 369.0 236.5 L 354.0 242.5 Q 353.29998779296875 246.3000030517578 355.5 247.0 Q 360.29998779296875 245.8000030517578 361.5 248.0 L 365.0 249.5 L 363.0 253.5 L 366.5 254.0 Q 371.6000061035156 250.60000610351562 381.5 252.0 L 381.5 253.0 Q 371.29998779296875 254.8000030517578 364.0 259.5 L 397.0 316.5 L 395.0 317.5 L 404.0 335.5 L 401.0 333.5 L 395.5 325.0 L 393.0 330.5 L 397.5 340.0 L 399.0 345.5 L 397.5 346.0 Q 391.70001220703125 341.29998779296875 390.5 332.0 L 387.0 322.5 L 382.5 315.0 L 381.5 318.0 L 377.5 313.0 L 376.0 312.5 L 357.0 279.5 L 352.0 270.5 L 349.5 264.0 L 340.0 266.5 L 320.0 273.5 L 312.5 291.0 L 307.5 306.0 L 306.0 305.5 Q 309.0 302.5 308.0 295.5 L 307.0 295.5 L 292.5 325.0 L 291.0 324.5 L 296.0 311.5 L 294.0 312.5 L 292.5 316.0 L 291.0 315.5 L 297.0 297.5 L 295.0 298.5 L 291.5 305.0 L 290.0 304.5 L 301.0 282.5 Q 299.79998779296875 279.79998779296875 298.5 282.0 L 293.5 283.0 L 295.5 280.0 L 299.0 278.5 L 298.0 276.5 L 300.5 273.0 L 294.0 274.5 L 288.5 275.0 L 288.0 273.5 L 296.0 270.5 Q 292.0 268.5 296.0 266.5 L 297.5 263.0 L 306.0 260.5 Q 310.70001220703125 260.70001220703125 312.0 257.5 L 308.5 257.0 L 303.5 258.0 L 303.0 256.5 L 310.5 253.0 L 313.5 252.0 L 317.0 248.5 L 322.0 238.5 L 326.0 228.5 L 327.0 222.5 L 321.5 213.0 Q 318.20001220703125 211.3000030517578 319.0 205.5 L 318.0 200.5 L 315.5 194.0 L 313.5 188.0 L 313.5 184.0 Z" /><path desc="l 5 p 2" fill="rgb(205,0,0)" stroke="rgb(205,0,0)" stroke-width="1" opacity="1.0" d="M 852.5 196.0 L 854.0 196.5 L 855.0 214.5 Q 853.5999755859375 224.89999389648438 858.5 229.0 L 859.5 227.0 L 861.0 227.5 Q 873.0 261.0 892.5 287.0 L 897.0 283.5 L 911.0 243.5 L 912.0 237.5 L 914.5 232.0 L 916.0 232.5 L 926.5 214.0 L 928.0 214.5 L 928.5 216.0 L 931.5 210.0 L 933.0 210.5 L 930.0 219.5 Q 927.2999877929688 223.3000030517578 929.0 231.5 L 930.0 231.5 Q 930.5999755859375 225.60000610351562 934.5 223.0 L 936.0 223.5 L 930.0 247.5 L 923.0 269.5 L 908.0 300.5 L 905.0 310.5 L 913.0 327.5 L 915.0 334.5 L 910.0 330.5 L 906.5 325.0 L 905.0 327.5 L 911.0 344.5 L 909.5 345.0 L 908.0 339.5 L 899.5 325.0 L 896.0 326.5 Q 896.0999755859375 332.1000061035156 892.5 334.0 L 891.0 333.5 L 890.5 330.0 L 885.5 338.0 L 884.0 337.5 L 885.0 334.5 L 883.5 335.0 L 879.5 333.0 L 869.5 346.0 L 869.0 342.5 L 889.0 308.5 L 881.5 296.0 L 878.0 293.5 L 870.5 275.0 L 856.5 249.0 L 856.0 252.5 L 857.0 257.5 L 857.0 270.5 L 861.0 313.5 L 864.0 326.5 L 865.0 335.5 L 862.0 333.5 L 858.5 324.0 L 857.5 327.0 L 854.0 329.5 L 853.5 337.0 L 852.0 336.5 L 850.5 329.0 L 849.5 331.0 L 848.0 330.5 Q 849.0 325.5 846.0 324.5 L 844.5 315.0 L 843.0 305.5 L 841.5 299.0 L 840.0 298.5 L 839.0 294.5 L 839.0 285.5 L 838.0 257.5 L 839.0 253.5 L 839.0 243.5 Q 836.7999877929688 242.3000030517578 838.0 237.5 L 836.0 218.5 L 838.0 219.5 L 839.0 225.5 Q 838.2999877929688 231.3000030517578 840.5 234.0 L 841.0 218.5 L 840.0 213.5 L 839.0 201.5 L 840.0 201.5 L 841.5 206.0 L 843.5 201.0 L 845.0 201.5 L 846.0 206.5 L 849.5 213.0 L 851.0 202.5 Q 849.7999877929688 197.3000030517578 852.5 196.0 Z" /><path desc="l 5 p 3" fill="rgb(205,0,0)" stroke="rgb(205,0,0)" stroke-width="1" opacity="1.0" d="M 697.5 198.0 L 701.0 200.5 L 703.5 204.0 L 707.5 203.0 L 716.5 214.0 L 717.5 211.0 L 720.0 212.5 Q 721.7000122070312 219.3000030517578 727.0 222.5 L 739.5 238.0 Q 741.2999877929688 234.3000030517578 743.0 237.5 Q 749.2999877929688 250.3000030517578 758.5 260.0 Q 775.5999755859375 236.60000610351562 785.5 206.0 L 787.0 205.5 L 789.5 201.0 L 792.0 201.5 L 791.0 205.5 L 792.5 206.0 L 795.5 201.0 L 799.5 203.0 Q 800.0 199.5 804.5 200.0 L 805.0 205.5 L 802.0 213.5 L 806.5 228.0 L 811.0 246.5 L 814.5 262.0 L 817.0 279.5 L 816.0 279.5 L 811.5 257.0 L 811.0 262.5 L 816.5 288.0 L 817.5 283.0 L 829.0 332.5 Q 827.5 335.5 826.0 332.5 Q 825.2000122070312 321.29998779296875 820.5 314.0 L 817.0 315.5 L 818.0 326.5 L 816.0 325.5 L 807.5 302.0 L 806.5 308.0 L 805.0 307.5 L 803.5 300.0 L 803.0 292.5 L 799.0 274.5 L 789.5 236.0 L 787.0 237.5 L 769.0 276.5 L 775.0 288.5 L 773.5 289.0 L 766.5 281.0 L 766.0 284.5 L 770.0 290.5 L 767.5 291.0 L 763.5 288.0 L 759.5 294.0 L 758.0 290.5 L 759.0 286.5 L 756.0 288.5 L 750.5 299.0 L 749.0 298.5 L 750.0 295.5 L 749.0 293.5 L 754.0 282.5 L 752.0 283.5 L 751.5 285.0 Q 747.7999877929688 284.29998779296875 747.0 286.5 L 741.0 294.5 L 737.0 301.5 L 740.0 309.5 L 741.0 316.5 L 745.0 339.5 L 743.0 338.5 L 740.5 333.0 L 739.0 335.5 L 740.0 339.5 L 738.0 338.5 L 735.5 330.0 L 735.0 338.5 Q 737.7999877929688 340.29998779296875 736.0 346.5 L 734.5 347.0 Q 732.2999877929688 345.29998779296875 733.0 340.5 L 732.0 331.5 L 722.0 284.5 L 721.0 272.5 Q 717.7000122070312 269.29998779296875 718.0 262.5 L 713.5 237.0 Q 712.7000122070312 227.3000030517578 708.0 221.5 L 700.0 209.5 L 702.0 208.5 L 698.5 202.0 L 697.5 198.0 Z" /><path desc="l 5 p 4" fill="rgb(205,0,0)" stroke="rgb(205,0,0)" stroke-width="1" opacity="1.0" d="M 402.5 202.0 L 406.5 213.0 L 408.5 207.0 L 411.0 207.5 L 411.0 216.5 L 412.0 220.5 L 413.0 225.5 L 413.0 236.5 L 414.0 272.5 Q 411.5 274.0 413.0 279.5 L 414.0 283.5 L 415.0 291.5 Q 415.79998779296875 299.79998779296875 421.5 303.0 L 437.5 322.0 Q 445.0 321.0 447.5 315.0 L 462.5 306.0 L 476.0 295.5 L 475.0 269.5 L 474.5 256.0 L 473.0 246.5 L 474.0 242.5 L 474.0 230.5 Q 471.5 229.0 473.0 223.5 L 473.0 204.5 L 477.0 203.5 L 477.5 202.0 Q 480.29998779296875 203.3000030517578 479.0 208.5 L 479.5 222.0 Q 482.0 218.60000610351562 481.0 211.5 Q 479.5 204.5 483.5 203.0 L 485.0 210.5 L 485.0 225.5 L 486.0 279.5 L 485.0 284.5 L 486.5 288.0 L 492.5 286.0 L 493.0 288.5 L 492.0 291.5 L 493.5 292.0 L 495.5 291.0 L 496.5 293.0 L 487.0 300.5 Q 484.20001220703125 302.20001220703125 485.0 307.5 Q 486.0 312.0 483.5 313.0 L 480.5 308.0 L 479.0 308.5 L 478.5 315.0 L 476.5 309.0 L 463.5 321.0 L 460.5 319.0 L 445.0 329.5 L 447.0 333.5 L 444.0 334.5 L 447.0 340.5 L 445.5 340.0 L 440.0 335.5 L 439.5 334.0 L 438.0 334.5 L 437.5 339.0 L 432.5 338.0 L 430.5 339.0 L 429.5 337.0 L 423.5 340.0 L 424.5 337.0 L 414.5 342.0 L 424.5 331.0 L 428.0 328.5 Q 423.20001220703125 317.29998779296875 414.5 310.0 L 413.5 317.0 L 411.0 315.5 L 410.5 309.0 L 409.0 309.5 Q 409.79998779296875 313.29998779296875 407.5 314.0 L 405.5 310.0 L 403.5 315.0 Q 401.1000061035156 311.8999938964844 402.0 305.5 Q 403.5 298.0 399.0 296.5 Q 394.6000061035156 292.8999938964844 394.0 285.5 L 396.0 284.5 L 395.0 278.5 L 397.5 278.0 L 400.5 280.0 L 401.0 266.5 Q 398.79998779296875 265.29998779296875 400.0 260.5 L 400.0 246.5 Q 402.5 245.0 401.0 239.5 L 401.0 221.5 L 400.0 219.5 L 401.0 216.5 L 401.0 208.5 Q 399.79998779296875 203.3000030517578 402.5 202.0 Z" /><path desc="l 5 p 5" fill="rgb(205,0,0)" stroke="rgb(205,0,0)" stroke-width="1" opacity="1.0" d="M 681.5 202.0 L 683.0 211.5 L 683.5 222.0 L 685.0 209.5 Q 683.7999877929688 204.3000030517578 686.5 203.0 L 688.0 206.5 L 688.0 213.5 L 689.0 240.5 L 690.0 278.5 Q 687.2999877929688 280.29998779296875 689.0 286.5 L 691.5 288.0 L 695.5 286.0 L 696.5 292.0 L 699.5 291.0 L 700.0 292.5 L 690.0 301.5 Q 687.4000244140625 302.8999938964844 688.0 307.5 L 687.5 313.0 L 686.0 312.5 L 684.5 308.0 L 682.0 309.5 L 683.0 313.5 L 681.0 314.5 L 680.5 309.0 Q 673.0 312.0 669.0 318.5 L 667.5 321.0 L 666.0 320.5 L 665.5 319.0 L 659.5 322.0 L 649.0 329.5 L 650.0 333.5 L 648.0 334.5 L 651.0 340.5 L 649.5 340.0 L 646.0 338.5 L 642.5 334.0 L 640.5 339.0 L 636.5 338.0 L 634.5 339.0 L 633.5 337.0 L 627.5 340.0 L 629.0 337.5 L 628.5 336.0 L 618.5 342.0 L 619.0 340.5 L 624.5 334.0 L 631.0 328.5 Q 626.9000244140625 317.1000061035156 618.5 310.0 L 617.5 317.0 L 615.0 316.5 L 614.5 309.0 L 612.0 310.5 L 611.5 314.0 L 609.5 309.0 L 607.5 315.0 Q 604.2999877929688 313.29998779296875 606.0 306.5 Q 607.5 301.0 605.0 299.5 L 602.5 296.0 L 599.5 292.0 Q 597.2999877929688 290.29998779296875 598.0 285.5 L 599.5 278.0 L 603.5 280.0 L 605.0 277.5 Q 602.2999877929688 275.79998779296875 604.0 269.5 L 604.0 245.5 L 605.0 242.5 L 605.0 234.5 Q 602.2999877929688 232.8000030517578 604.0 226.5 L 604.0 206.5 L 605.5 203.0 L 607.0 203.5 L 608.5 209.0 L 610.0 209.5 L 610.5 217.0 L 611.0 211.5 Q 610.2999877929688 207.8000030517578 612.5 207.0 L 615.0 208.5 L 615.0 216.5 L 616.0 220.5 L 617.0 225.5 L 617.0 236.5 L 616.0 241.5 L 617.0 244.5 L 617.0 251.5 L 617.0 279.5 L 619.0 292.5 L 620.0 296.5 L 625.5 303.0 L 641.5 322.0 Q 648.0 320.5 651.0 315.5 L 664.0 307.5 L 679.0 296.5 L 680.0 293.5 L 679.0 290.5 L 679.0 282.5 L 677.0 245.5 L 678.0 241.5 L 677.0 238.5 L 677.0 231.5 L 677.0 204.5 L 681.5 202.0 Z" /><path desc="l 5 p 6" fill="rgb(205,0,0)" stroke="rgb(205,0,0)" stroke-width="1" opacity="1.0" d="M 539.5 207.0 L 542.0 208.5 L 546.5 220.0 L 553.5 219.0 L 567.5 216.0 L 574.0 214.5 L 580.5 214.0 L 581.5 216.0 L 584.0 216.5 L 584.5 221.0 L 589.5 220.0 L 589.5 221.0 L 573.0 227.5 L 551.0 234.5 L 559.5 263.0 L 564.0 279.5 L 566.0 290.5 L 569.0 305.5 L 573.0 324.5 L 571.0 323.5 L 568.5 316.0 L 568.0 321.5 L 569.0 324.5 L 570.0 333.5 L 568.5 334.0 L 565.5 330.0 L 562.0 328.5 L 557.5 316.0 L 556.0 319.5 L 555.5 324.0 L 553.5 320.0 L 550.0 317.5 L 550.0 310.5 Q 550.7999877929688 306.29998779296875 548.0 305.5 L 545.0 288.5 L 541.0 271.5 L 539.0 258.5 L 537.0 244.5 L 535.5 238.0 L 521.5 240.0 L 520.5 238.0 L 509.5 240.0 L 507.0 238.5 L 511.0 236.5 L 512.0 233.5 L 507.5 233.0 Q 506.29998779296875 235.3000030517578 501.5 234.0 L 502.5 232.0 L 505.0 230.5 L 504.5 229.0 L 523.5 226.0 L 530.0 223.5 L 526.0 210.5 L 528.0 211.5 L 531.5 220.0 L 532.0 213.5 L 531.0 210.5 L 534.5 208.0 L 536.5 211.0 L 539.5 207.0 Z" /><path desc="l 0 p 1" fill="rgb(1,0,0)" stroke="rgb(1,0,0)" stroke-width="1" opacity="1.0" d="M 852.5 208.0 L 853.0 217.5 L 852.0 217.5 L 852.5 208.0 Z" /><path desc="l 5 p 7" fill="rgb(205,0,0)" stroke="rgb(205,0,0)" stroke-width="1" opacity="1.0" d="M 234.5 210.0 L 237.0 215.5 Q 236.3000030517578 219.3000030517578 238.5 220.0 Q 241.10000610351562 218.60000610351562 240.5 214.0 L 245.0 216.5 L 246.0 223.5 Q 245.3000030517578 229.3000030517578 247.5 232.0 L 248.5 214.0 L 250.0 214.5 L 250.5 219.0 L 252.0 215.5 L 253.5 210.0 L 255.0 210.5 L 257.5 219.0 L 259.0 218.5 L 259.5 213.0 L 261.0 213.5 L 261.0 250.5 L 262.0 272.5 Q 259.0 275.5 260.0 282.5 L 260.0 301.5 L 264.0 312.5 L 269.0 330.5 L 268.0 333.5 Q 270.29998779296875 334.79998779296875 267.5 336.0 L 263.0 333.5 L 260.5 328.0 Q 261.1000061035156 332.6000061035156 258.5 334.0 L 255.5 328.0 L 251.5 331.0 L 248.5 330.0 L 246.5 333.0 L 244.0 332.5 L 242.5 324.0 L 239.5 329.0 L 238.0 323.5 L 238.0 311.5 L 238.0 266.5 L 239.0 262.5 L 238.0 259.5 L 238.0 253.5 L 237.5 245.0 L 236.0 236.5 L 235.0 229.5 L 234.0 222.5 L 234.5 210.0 Z" /><path desc="l 0 p 2" fill="rgb(1,0,0)" stroke="rgb(1,0,0)" stroke-width="1" opacity="1.0" d="M 715.5 216.0 Q 718.5 216.5 718.0 220.5 L 715.0 218.5 L 715.5 216.0 Z" /><path desc="l 0 p 3" fill="rgb(1,0,0)" stroke="rgb(1,0,0)" stroke-width="1" opacity="1.0" d="M 156.5 218.0 L 157.0 219.5 L 155.0 220.5 L 156.5 218.0 Z" /><path desc="l 0 p 4" fill="rgb(1,0,0)" stroke="rgb(1,0,0)" stroke-width="1" opacity="1.0" d="M 799.5 218.0 L 801.5 223.0 L 804.0 233.5 L 805.0 243.5 L 807.0 253.5 L 806.0 253.5 L 800.5 235.0 L 798.0 233.5 L 797.0 229.5 L 796.0 222.5 L 799.5 218.0 Z" /><path desc="l 0 p 5" fill="rgb(1,0,0)" stroke="rgb(1,0,0)" stroke-width="1" opacity="1.0" d="M 557.5 229.0 L 561.0 229.5 L 551.5 232.0 L 551.5 231.0 L 557.5 229.0 Z" /><path desc="l 0 p 6" fill="rgb(1,0,0)" stroke="rgb(1,0,0)" stroke-width="1" opacity="1.0" d="M 784.5 232.0 L 784.0 233.5 L 783.5 235.0 L 783.0 233.5 L 784.5 232.0 Z" /><path desc="l 0 p 7" fill="rgb(1,0,0)" stroke="rgb(1,0,0)" stroke-width="1" opacity="1.0" d="M 924.5 237.0 L 925.0 239.5 L 921.5 246.0 L 921.0 244.5 L 924.5 237.0 Z" /><path desc="l 0 p 8" fill="rgb(1,0,0)" stroke="rgb(1,0,0)" stroke-width="1" opacity="1.0" d="M 79.5 238.0 L 81.0 240.5 L 79.0 239.5 L 79.5 238.0 Z" /><path desc="l 0 p 9" fill="rgb(1,0,0)" stroke="rgb(1,0,0)" stroke-width="1" opacity="1.0" d="M 337.5 238.0 L 339.0 240.5 L 337.0 239.5 L 337.5 238.0 Z" /><path desc="l 0 p 10" fill="rgb(1,0,0)" stroke="rgb(1,0,0)" stroke-width="1" opacity="1.0" d="M 856.5 240.0 L 860.0 245.5 L 858.0 244.5 L 856.5 240.0 Z" /><path desc="l 0 p 11" fill="rgb(1,0,0)" stroke="rgb(1,0,0)" stroke-width="1" opacity="1.0" d="M 76.5 241.0 L 79.0 242.5 L 75.5 244.0 L 75.0 242.5 L 76.5 241.0 Z" /><path desc="l 0 p 12" fill="rgb(1,0,0)" stroke="rgb(1,0,0)" stroke-width="1" opacity="1.0" d="M 334.5 241.0 L 337.0 242.5 L 333.5 244.0 L 333.0 242.5 L 334.5 241.0 Z" /><path desc="l 0 p 13" fill="rgb(1,0,0)" stroke="rgb(1,0,0)" stroke-width="1" opacity="1.0" d="M 779.5 241.0 L 780.0 242.5 L 777.0 244.5 L 779.5 241.0 Z" /><path desc="l 0 p 14" fill="rgb(1,0,0)" stroke="rgb(1,0,0)" stroke-width="1" opacity="1.0" d="M 725.5 243.0 L 728.0 244.5 L 743.5 264.0 L 749.0 270.5 L 751.0 275.5 L 737.5 295.0 L 736.0 294.5 L 724.0 244.5 L 725.5 243.0 Z" /><path desc="l 0 p 15" fill="rgb(1,0,0)" stroke="rgb(1,0,0)" stroke-width="1" opacity="1.0" d="M 76.5 245.0 Q 80.30000305175781 244.3000030517578 81.0 246.5 Q 79.30000305175781 249.8000030517578 73.5 249.0 L 76.5 245.0 Z" /><path desc="l 0 p 16" fill="rgb(1,0,0)" stroke="rgb(1,0,0)" stroke-width="1" opacity="1.0" d="M 334.5 245.0 Q 338.29998779296875 244.3000030517578 339.0 246.5 Q 337.29998779296875 249.8000030517578 331.5 249.0 L 334.5 245.0 Z" /><path desc="l 0 p 17" fill="rgb(1,0,0)" stroke="rgb(1,0,0)" stroke-width="1" opacity="1.0" d="M 403.5 248.0 L 405.0 251.5 L 405.0 258.5 L 403.5 261.0 L 402.0 250.5 L 403.5 248.0 Z" /><path desc="l 0 p 18" fill="rgb(1,0,0)" stroke="rgb(1,0,0)" stroke-width="1" opacity="1.0" d="M 607.5 248.0 Q 609.7999877929688 249.8000030517578 609.0 254.5 L 607.5 260.0 L 606.0 256.5 L 606.0 249.5 L 607.5 248.0 Z" /><path desc="l 0 p 19" fill="rgb(1,0,0)" stroke="rgb(1,0,0)" stroke-width="1" opacity="1.0" d="M 850.5 250.0 L 851.0 252.5 L 850.0 252.5 L 850.5 250.0 Z" /><path desc="l 0 p 20" fill="rgb(1,0,0)" stroke="rgb(1,0,0)" stroke-width="1" opacity="1.0" d="M 82.5 253.0 L 84.0 253.5 L 77.5 257.0 L 68.5 260.0 L 69.0 258.5 L 70.5 256.0 L 82.5 253.0 Z" /><path desc="l 0 p 21" fill="rgb(1,0,0)" stroke="rgb(1,0,0)" stroke-width="1" opacity="1.0" d="M 340.5 253.0 L 342.0 253.5 L 335.5 257.0 L 326.5 260.0 L 326.0 258.5 L 331.0 255.5 L 340.5 253.0 Z" /><path desc="l 0 p 22" fill="rgb(1,0,0)" stroke="rgb(1,0,0)" stroke-width="1" opacity="1.0" d="M 102.5 263.0 Q 110.4000015258789 271.6000061035156 115.0 283.5 L 111.0 280.5 L 104.5 269.0 L 102.5 263.0 Z" /><path desc="l 0 p 23" fill="rgb(1,0,0)" stroke="rgb(1,0,0)" stroke-width="1" opacity="1.0" d="M 360.5 263.0 Q 368.3999938964844 271.6000061035156 373.0 283.5 L 369.0 280.5 L 362.5 269.0 L 360.5 263.0 Z" /><path desc="l 0 p 24" fill="rgb(1,0,0)" stroke="rgb(1,0,0)" stroke-width="1" opacity="1.0" d="M 49.5 264.0 L 51.0 264.5 L 45.5 267.0 L 45.5 266.0 L 49.5 264.0 Z" /><path desc="l 0 p 25" fill="rgb(1,0,0)" stroke="rgb(1,0,0)" stroke-width="1" opacity="1.0" d="M 307.5 264.0 L 308.0 265.5 L 303.5 267.0 L 303.5 266.0 L 307.5 264.0 Z" /><path desc="l 0 p 26" fill="rgb(1,0,0)" stroke="rgb(1,0,0)" stroke-width="1" opacity="1.0" d="M 768.5 270.0 L 769.0 271.5 L 767.0 272.5 L 768.5 270.0 Z" /><path desc="l 0 p 27" fill="rgb(1,0,0)" stroke="rgb(1,0,0)" stroke-width="1" opacity="1.0" d="M 239.5 274.0 Q 242.8000030517578 275.79998779296875 241.0 282.5 L 239.5 288.0 L 239.5 274.0 Z" /><path desc="l 0 p 28" fill="rgb(1,0,0)" stroke="rgb(1,0,0)" stroke-width="1" opacity="1.0" d="M 763.5 278.0 L 765.0 278.5 L 763.5 281.0 L 763.5 278.0 Z" /><path desc="l 0 p 29" fill="rgb(1,0,0)" stroke="rgb(1,0,0)" stroke-width="1" opacity="1.0" d="M 553.5 282.0 L 559.0 300.5 L 562.0 313.5 L 561.0 313.5 L 555.0 294.5 L 553.5 287.0 L 553.5 282.0 Z" /><path desc="l 0 p 30" fill="rgb(1,0,0)" stroke="rgb(1,0,0)" stroke-width="1" opacity="1.0" d="M 901.5 289.0 L 902.0 291.5 L 899.5 296.0 L 899.0 293.5 L 901.5 289.0 Z" /><path desc="l 0 p 31" fill="rgb(1,0,0)" stroke="rgb(1,0,0)" stroke-width="1" opacity="1.0" d="M 119.5 292.0 L 122.0 296.5 L 120.0 295.5 L 119.5 292.0 Z" /><path desc="l 0 p 32" fill="rgb(1,0,0)" stroke="rgb(1,0,0)" stroke-width="1" opacity="1.0" d="M 377.5 292.0 L 380.0 296.5 L 378.0 295.5 L 377.5 292.0 Z" /><path desc="l 0 p 33" fill="rgb(1,0,0)" stroke="rgb(1,0,0)" stroke-width="1" opacity="1.0" d="M 242.5 298.0 L 243.0 311.5 L 241.0 310.5 L 242.0 306.5 L 242.5 298.0 Z" /><path desc="l 0 p 34" fill="rgb(1,0,0)" stroke="rgb(1,0,0)" stroke-width="1" opacity="1.0" d="M 849.5 301.0 L 850.5 306.0 L 851.0 313.5 L 850.0 313.5 L 849.5 301.0 Z" /><path desc="l 0 p 35" fill="rgb(1,0,0)" stroke="rgb(1,0,0)" stroke-width="1" opacity="1.0" d="M 858.5 317.0 L 859.0 320.5 L 858.0 320.5 L 858.5 317.0 Z" /><path desc="l 0 p 36" fill="rgb(1,0,0)" stroke="rgb(1,0,0)" stroke-width="1" opacity="1.0" d="M 161.5 321.0 L 163.0 321.5 L 162.5 327.0 L 161.5 321.0 Z" /><path desc="l 0 p 37" fill="rgb(1,0,0)" stroke="rgb(1,0,0)" stroke-width="1" opacity="1.0" d="M 137.5 325.0 L 141.0 330.5 Q 140.3000030517578 332.79998779296875 136.5 332.0 L 135.0 329.5 L 137.5 325.0 Z" /></svg>